<svg xmlns="http://www.w3.org/2000/svg" width="60" zoomAndPan="magnify" viewBox="0 0 375 374.999991" height="60" preserveAspectRatio="xMidYMid meet" version="1.0"><defs><clipPath id="0b6dce0635"><path d="M 104.835938 63.507812 L 270.4375 63.507812 L 270.4375 311.753906 L 104.835938 311.753906 Z M 104.835938 63.507812 " clip-rule="nonzero"/></clipPath></defs><g clip-path="url(#0b6dce0635)"><path fill="#5d5957" d="M 187.636719 63.503906 C 141.984375 63.503906 104.835938 100.617188 104.835938 146.257812 C 104.835938 190.15625 180.101562 304.589844 183.324219 309.429688 C 184.277344 310.867188 185.898438 311.753906 187.636719 311.753906 C 189.378906 311.753906 190.992188 310.867188 191.957031 309.429688 C 195.164062 304.589844 270.4375 190.15625 270.4375 146.257812 C 270.4375 100.617188 233.289062 63.503906 187.636719 63.503906 " fill-opacity="1" fill-rule="nonzero"/></g><path fill="#ffffff" d="M 187.636719 182.457031 C 167.660156 182.457031 151.410156 166.21875 151.410156 146.257812 C 151.410156 126.289062 167.660156 110.050781 187.636719 110.050781 C 207.613281 110.050781 223.863281 126.289062 223.863281 146.257812 C 223.863281 166.21875 207.613281 182.457031 187.636719 182.457031 " fill-opacity="1" fill-rule="nonzero"/></svg>